<svg xmlns="http://www.w3.org/2000/svg" style="display: none;">
    <symbol id="email" viewBox="0 0 20 20" fill="none">
        <path d="M18.3333 5.83331L10.8583 10.5833C10.601 10.7445 10.3036 10.83 9.99996 10.83C9.69636 10.83 9.3989 10.7445 9.14163 10.5833L1.66663 5.83331M3.33329 3.33331H16.6666C17.5871 3.33331 18.3333 4.07951 18.3333 4.99998V15C18.3333 15.9205 17.5871 16.6666 16.6666 16.6666H3.33329C2.41282 16.6666 1.66663 15.9205 1.66663 15V4.99998C1.66663 4.07951 2.41282 3.33331 3.33329 3.33331Z" stroke="currentColor" stroke-width="1.66667" stroke-linecap="round" stroke-linejoin="round"/>
    </symbol>

    <symbol id="phone" viewBox="0 0 19 19" fill="none">
        <path d="M17.4068 13.2667V15.7667C17.4077 15.9988 17.3602 16.2285 17.2672 16.4412C17.1743 16.6538 17.0379 16.8447 16.8669 17.0016C16.6959 17.1585 16.4939 17.278 16.2741 17.3523C16.0542 17.4267 15.8213 17.4543 15.5901 17.4334C13.0258 17.1548 10.5626 16.2785 8.39847 14.8751C6.38499 13.5956 4.67792 11.8885 3.39847 9.87506C1.99012 7.70106 1.11367 5.22589 0.840138 2.65006C0.819313 2.41962 0.8467 2.18736 0.920555 1.96808C0.99441 1.7488 1.11311 1.5473 1.26911 1.37641C1.42511 1.20552 1.61498 1.06898 1.82663 0.975495C2.03829 0.882006 2.26709 0.833612 2.49847 0.833394H4.99847C5.40289 0.829413 5.79496 0.972626 6.10161 1.23634C6.40825 1.50005 6.60854 1.86627 6.66514 2.26673C6.77066 3.06678 6.96635 3.85233 7.24847 4.60839C7.36059 4.90666 7.38486 5.23082 7.31839 5.54246C7.25193 5.8541 7.09752 6.14015 6.87347 6.36673L5.81514 7.42506C7.00143 9.51135 8.72885 11.2388 10.8151 12.4251L11.8735 11.3667C12.1 11.1427 12.3861 10.9883 12.6977 10.9218C13.0094 10.8553 13.3335 10.8796 13.6318 10.9917C14.3879 11.2739 15.1734 11.4695 15.9735 11.5751C16.3783 11.6322 16.748 11.8361 17.0122 12.148C17.2765 12.4599 17.4169 12.858 17.4068 13.2667Z" stroke="currentColor" stroke-width="1.66667" stroke-linecap="round" stroke-linejoin="round"/>
    </symbol>

    <symbol id="menu-summary" viewBox="0 0 24 24" fill="none">
        <path d="M14 4H21M14 9H21M14 15H21M14 20H21M4 3H9C9.55228 3 10 3.44772 10 4V9C10 9.55228 9.55228 10 9 10H4C3.44772 10 3 9.55228 3 9V4C3 3.44772 3.44772 3 4 3ZM4 14H9C9.55228 14 10 14.4477 10 15V20C10 20.5523 9.55228 21 9 21H4C3.44772 21 3 20.5523 3 20V15C3 14.4477 3.44772 14 4 14Z" stroke="currentColor" stroke-width="2" stroke-linecap="round" stroke-linejoin="round"/>
    </symbol>

    <symbol id="menu-warehouse" viewBox="0 0 24 24" fill="none">
        <path d="M6 18H18M6 14H18M22 8.35002V20C22 20.5305 21.7893 21.0392 21.4142 21.4142C21.0391 21.7893 20.5304 22 20 22H4C3.46957 22 2.96086 21.7893 2.58579 21.4142C2.21071 21.0392 2 20.5305 2 20V8.35002C2.00161 7.95117 2.12244 7.5619 2.34696 7.23225C2.57149 6.90259 2.88945 6.64759 3.26 6.50002L11.26 3.30002C11.7352 3.11077 12.2648 3.11077 12.74 3.30002L20.74 6.50002C21.1106 6.64759 21.4285 6.90259 21.653 7.23225C21.8776 7.5619 21.9984 7.95117 22 8.35002ZM6 10H18V22H6V10Z" stroke="currentColor" stroke-width="2" stroke-linecap="round" stroke-linejoin="round"/>
    </symbol>

    <symbol id="menu-gallery" viewBox="0 0 24 24" fill="none">
        <path d="M2 7V17M6 5V19M12 3H20C21.1046 3 22 3.89543 22 5V19C22 20.1046 21.1046 21 20 21H12C10.8954 21 10 20.1046 10 19V5C10 3.89543 10.8954 3 12 3Z" stroke="#7ED6C2" stroke-width="2" stroke-linecap="round" stroke-linejoin="round"/>
    </symbol>

    <symbol id="menu-plug" viewBox="0 0 24 24" fill="none">
        <path d="M2 22L5 19M7.5 13.5L10 11M10.5 16.5L13 14M18 3L14 7H20L16 11M6.30003 20.3C6.523 20.5237 6.78794 20.7013 7.07967 20.8224C7.37139 20.9435 7.68416 21.0059 8.00003 21.0059C8.31591 21.0059 8.62867 20.9435 8.9204 20.8224C9.21212 20.7013 9.47706 20.5237 9.70003 20.3L12 18L6.00003 12L3.70003 14.3C3.47629 14.523 3.29876 14.7879 3.17763 15.0796C3.05649 15.3714 2.99414 15.6841 2.99414 16C2.99414 16.3159 3.05649 16.6286 3.17763 16.9204C3.29876 17.2121 3.47629 17.477 3.70003 17.7L6.30003 20.3Z" stroke="currentColor" stroke-width="2" stroke-linecap="round" stroke-linejoin="round"/>
    </symbol>

    <symbol id="menu-map" viewBox="0 0 24 24" fill="none">
        <path d="M20 10C20 16 12 22 12 22C12 22 4 16 4 10C4 7.87827 4.84285 5.84344 6.34315 4.34315C7.84344 2.84285 9.87827 2 12 2C14.1217 2 16.1566 2.84285 17.6569 4.34315C19.1571 5.84344 20 7.87827 20 10Z" stroke="currentColor" stroke-width="2" stroke-linecap="round" stroke-linejoin="round"/>
        <path d="M12 13C13.6569 13 15 11.6569 15 10C15 8.34315 13.6569 7 12 7C10.3431 7 9 8.34315 9 10C9 11.6569 10.3431 13 12 13Z" stroke="currentColor" stroke-width="2" stroke-linecap="round" stroke-linejoin="round"/>
    </symbol>

    <symbol id="menu-landmark" viewBox="0 0 24 24" fill="none">
        <path d="M3 22H21M6 18V11M10 18V11M14 18V11M18 18V11M12 2L20 7H4L12 2Z" stroke="currentColor" stroke-width="2" stroke-linecap="round" stroke-linejoin="round"/>
    </symbol>

    <symbol id="download" viewBox="0 0 20 20" fill="none" xmlns="http://www.w3.org/2000/svg">
        <path d="M19 13V17C19 17.5304 18.7893 18.0391 18.4142 18.4142C18.0391 18.7893 17.5304 19 17 19H3C2.46957 19 1.96086 18.7893 1.58579 18.4142C1.21071 18.0391 1 17.5304 1 17V13M5 8L10 13M10 13L15 8M10 13V1" stroke="currentColor" stroke-width="2" stroke-linecap="round" stroke-linejoin="round"/>
    </symbol>

</svg>
