<svg xmlns="http://www.w3.org/2000/svg" style="display: none;">
    <symbol id="email" viewBox="0 0 20 20" fill="none">
        <path d="M18.3333 5.83331L10.8583 10.5833C10.601 10.7445 10.3036 10.83 9.99996 10.83C9.69636 10.83 9.3989 10.7445 9.14163 10.5833L1.66663 5.83331M3.33329 3.33331H16.6666C17.5871 3.33331 18.3333 4.07951 18.3333 4.99998V15C18.3333 15.9205 17.5871 16.6666 16.6666 16.6666H3.33329C2.41282 16.6666 1.66663 15.9205 1.66663 15V4.99998C1.66663 4.07951 2.41282 3.33331 3.33329 3.33331Z" stroke="currentColor" stroke-width="1.66667" stroke-linecap="round" stroke-linejoin="round"/>
    </symbol>

    <symbol id="phone" viewBox="0 0 19 19" fill="none">
        <path d="M17.4068 13.2667V15.7667C17.4077 15.9988 17.3602 16.2285 17.2672 16.4412C17.1743 16.6538 17.0379 16.8447 16.8669 17.0016C16.6959 17.1585 16.4939 17.278 16.2741 17.3523C16.0542 17.4267 15.8213 17.4543 15.5901 17.4334C13.0258 17.1548 10.5626 16.2785 8.39847 14.8751C6.38499 13.5956 4.67792 11.8885 3.39847 9.87506C1.99012 7.70106 1.11367 5.22589 0.840138 2.65006C0.819313 2.41962 0.8467 2.18736 0.920555 1.96808C0.99441 1.7488 1.11311 1.5473 1.26911 1.37641C1.42511 1.20552 1.61498 1.06898 1.82663 0.975495C2.03829 0.882006 2.26709 0.833612 2.49847 0.833394H4.99847C5.40289 0.829413 5.79496 0.972626 6.10161 1.23634C6.40825 1.50005 6.60854 1.86627 6.66514 2.26673C6.77066 3.06678 6.96635 3.85233 7.24847 4.60839C7.36059 4.90666 7.38486 5.23082 7.31839 5.54246C7.25193 5.8541 7.09752 6.14015 6.87347 6.36673L5.81514 7.42506C7.00143 9.51135 8.72885 11.2388 10.8151 12.4251L11.8735 11.3667C12.1 11.1427 12.3861 10.9883 12.6977 10.9218C13.0094 10.8553 13.3335 10.8796 13.6318 10.9917C14.3879 11.2739 15.1734 11.4695 15.9735 11.5751C16.3783 11.6322 16.748 11.8361 17.0122 12.148C17.2765 12.4599 17.4169 12.858 17.4068 13.2667Z" stroke="currentColor" stroke-width="1.66667" stroke-linecap="round" stroke-linejoin="round"/>
    </symbol>

    <symbol id="menu-summary" viewBox="0 0 24 24" fill="none">
        <path d="M14 4H21M14 9H21M14 15H21M14 20H21M4 3H9C9.55228 3 10 3.44772 10 4V9C10 9.55228 9.55228 10 9 10H4C3.44772 10 3 9.55228 3 9V4C3 3.44772 3.44772 3 4 3ZM4 14H9C9.55228 14 10 14.4477 10 15V20C10 20.5523 9.55228 21 9 21H4C3.44772 21 3 20.5523 3 20V15C3 14.4477 3.44772 14 4 14Z" stroke="currentColor" stroke-width="2" stroke-linecap="round" stroke-linejoin="round"/>
    </symbol>

    <symbol id="menu-warehouse" viewBox="0 0 24 24" fill="none">
        <path d="M6 18H18M6 14H18M22 8.35002V20C22 20.5305 21.7893 21.0392 21.4142 21.4142C21.0391 21.7893 20.5304 22 20 22H4C3.46957 22 2.96086 21.7893 2.58579 21.4142C2.21071 21.0392 2 20.5305 2 20V8.35002C2.00161 7.95117 2.12244 7.5619 2.34696 7.23225C2.57149 6.90259 2.88945 6.64759 3.26 6.50002L11.26 3.30002C11.7352 3.11077 12.2648 3.11077 12.74 3.30002L20.74 6.50002C21.1106 6.64759 21.4285 6.90259 21.653 7.23225C21.8776 7.5619 21.9984 7.95117 22 8.35002ZM6 10H18V22H6V10Z" stroke="currentColor" stroke-width="2" stroke-linecap="round" stroke-linejoin="round"/>
    </symbol>

    <symbol id="menu-gallery" viewBox="0 0 24 24" fill="none">
        <path d="M2 7V17M6 5V19M12 3H20C21.1046 3 22 3.89543 22 5V19C22 20.1046 21.1046 21 20 21H12C10.8954 21 10 20.1046 10 19V5C10 3.89543 10.8954 3 12 3Z" stroke="currentColor" stroke-width="2" stroke-linecap="round" stroke-linejoin="round"/>
    </symbol>

    <symbol id="menu-plug" viewBox="0 0 24 24" fill="none">
        <path d="M2 22L5 19M7.5 13.5L10 11M10.5 16.5L13 14M18 3L14 7H20L16 11M6.30003 20.3C6.523 20.5237 6.78794 20.7013 7.07967 20.8224C7.37139 20.9435 7.68416 21.0059 8.00003 21.0059C8.31591 21.0059 8.62867 20.9435 8.9204 20.8224C9.21212 20.7013 9.47706 20.5237 9.70003 20.3L12 18L6.00003 12L3.70003 14.3C3.47629 14.523 3.29876 14.7879 3.17763 15.0796C3.05649 15.3714 2.99414 15.6841 2.99414 16C2.99414 16.3159 3.05649 16.6286 3.17763 16.9204C3.29876 17.2121 3.47629 17.477 3.70003 17.7L6.30003 20.3Z" stroke="currentColor" stroke-width="2" stroke-linecap="round" stroke-linejoin="round"/>
    </symbol>

    <symbol id="menu-map" viewBox="0 0 24 24" fill="none">
        <path d="M20 10C20 16 12 22 12 22C12 22 4 16 4 10C4 7.87827 4.84285 5.84344 6.34315 4.34315C7.84344 2.84285 9.87827 2 12 2C14.1217 2 16.1566 2.84285 17.6569 4.34315C19.1571 5.84344 20 7.87827 20 10Z" stroke="currentColor" stroke-width="2" stroke-linecap="round" stroke-linejoin="round"/>
        <path d="M12 13C13.6569 13 15 11.6569 15 10C15 8.34315 13.6569 7 12 7C10.3431 7 9 8.34315 9 10C9 11.6569 10.3431 13 12 13Z" stroke="currentColor" stroke-width="2" stroke-linecap="round" stroke-linejoin="round"/>
    </symbol>

    <symbol id="menu-landmark" viewBox="0 0 24 24" fill="none">
        <path d="M3 22H21M6 18V11M10 18V11M14 18V11M18 18V11M12 2L20 7H4L12 2Z" stroke="currentColor" stroke-width="2" stroke-linecap="round" stroke-linejoin="round"/>
    </symbol>

    <symbol id="download" viewBox="0 0 20 20" fill="none" xmlns="http://www.w3.org/2000/svg">
        <path d="M19 13V17C19 17.5304 18.7893 18.0391 18.4142 18.4142C18.0391 18.7893 17.5304 19 17 19H3C2.46957 19 1.96086 18.7893 1.58579 18.4142C1.21071 18.0391 1 17.5304 1 17V13M5 8L10 13M10 13L15 8M10 13V1" stroke="currentColor" stroke-width="2" stroke-linecap="round" stroke-linejoin="round"/>
    </symbol>

    <symbol width="60" height="60" viewBox="0 0 60 60" fill="none" xmlns="http://www.w3.org/2000/svg" id="feature-property-type">
        <path d="M48.4047 52.5488L48.5302 52.5348V24.5999" stroke="white" stroke-width="1.67442" stroke-miterlimit="21.1024" stroke-linecap="round" stroke-linejoin="round"/>
        <path d="M37.7302 14.5813V9.73947H44.3023V20.5395M24.2511 52.5488V33.2651H35.9162V52.5488" stroke="#7ED6C2" stroke-width="1.67442" stroke-miterlimit="21.1024" stroke-linecap="round" stroke-linejoin="round"/>
        <path d="M7.07446 28.521L30.0838 7.49306L52.7721 28.5349" stroke="white" stroke-width="1.67442" stroke-miterlimit="21.1024" stroke-linecap="round" stroke-linejoin="round"/>
        <path d="M11.386 24.572V52.5487H48.5441" stroke="white" stroke-width="1.67442" stroke-miterlimit="21.1024" stroke-linecap="round" stroke-linejoin="round"/>
    </symbol>

    <symbol width="60" height="60" viewBox="0 0 60 60" fill="none" xmlns="http://www.w3.org/2000/svg" id="feature-approximate-age">
        <mask id="mask0_171_210" style="mask-type:alpha" maskUnits="userSpaceOnUse" x="5" y="9" width="50" height="45">
        <path d="M54.9106 9.87236H5.59302V53.8858H39.9017C36.9084 52.2169 34.8838 49.0193 34.8838 45.3488C34.8838 39.9544 39.2568 35.5814 44.6512 35.5814C50.0456 35.5814 54.4186 39.9544 54.4186 45.3488C54.4186 46.7632 54.1179 48.1074 53.5771 49.321H54.9106V9.87236Z" fill="white"/>
        </mask>
        <g mask="url(#mask0_171_210)">
        <path d="M52.4651 51.6277H7.53491V12.1951H52.4651V51.6277Z" stroke="white" stroke-width="1.67442" stroke-miterlimit="12.88" stroke-linecap="round" stroke-linejoin="round"/>
        </g>
        <path d="M18.1255 12.1953V6.80928H12.0278V12.1953M47.972 12.1953V6.80928H41.8743V12.1953" stroke="white" stroke-width="1.67442" stroke-miterlimit="12.88" stroke-linecap="round" stroke-linejoin="round"/>
        <path d="M30.0001 43.9535C31.9267 43.9535 33.4885 42.3917 33.4885 40.4651C33.4885 38.5385 31.9267 36.9767 30.0001 36.9767C28.0735 36.9767 26.5117 38.5385 26.5117 40.4651C26.5117 42.3917 28.0735 43.9535 30.0001 43.9535Z" stroke="white" stroke-width="1.67442"/>
        <path d="M52.4651 18.8372H7.53491" stroke="white" stroke-width="1.67442" stroke-miterlimit="12.88" stroke-linecap="round" stroke-linejoin="round"/>
        <path d="M54.4187 45.3488C54.4187 39.9544 50.0456 35.5814 44.6512 35.5814C39.2568 35.5814 34.8838 39.9544 34.8838 45.3488C34.8838 50.7432 39.2568 55.1163 44.6512 55.1163C48.3245 55.1163 51.5242 53.0886 53.192 50.0915" stroke="#7ED6C2" stroke-width="1.67442" stroke-linecap="round" stroke-linejoin="round"/>
        <path d="M57.4783 41.4537L54.4186 45.3486L50.5239 42.2888" stroke="#7ED6C2" stroke-width="1.67442" stroke-linecap="round" stroke-linejoin="round"/>
        <path d="M17.4417 43.9535C19.3683 43.9535 20.9301 42.3917 20.9301 40.4651C20.9301 38.5385 19.3683 36.9767 17.4417 36.9767C15.5152 36.9767 13.9534 38.5385 13.9534 40.4651C13.9534 42.3917 15.5152 43.9535 17.4417 43.9535Z" stroke="#7ED6C2" stroke-width="1.67442"/>
        <path d="M17.4417 31.3954C19.3683 31.3954 20.9301 29.8336 20.9301 27.907C20.9301 25.9804 19.3683 24.4186 17.4417 24.4186C15.5152 24.4186 13.9534 25.9804 13.9534 27.907C13.9534 29.8336 15.5152 31.3954 17.4417 31.3954Z" stroke="white" stroke-width="1.67442"/>
        <path d="M30.0001 31.3954C31.9267 31.3954 33.4885 29.8336 33.4885 27.907C33.4885 25.9804 31.9267 24.4186 30.0001 24.4186C28.0735 24.4186 26.5117 25.9804 26.5117 27.907C26.5117 29.8336 28.0735 31.3954 30.0001 31.3954Z" stroke="#7ED6C2" stroke-width="1.67442"/>
        <path d="M42.5582 31.3954C44.4848 31.3954 46.0466 29.8336 46.0466 27.907C46.0466 25.9804 44.4848 24.4186 42.5582 24.4186C40.6316 24.4186 39.0698 25.9804 39.0698 27.907C39.0698 29.8336 40.6316 31.3954 42.5582 31.3954Z" stroke="white" stroke-width="1.67442"/>
    </symbol>

    <symbol width="60" height="60" viewBox="0 0 60 60" fill="none" xmlns="http://www.w3.org/2000/svg" id="feature-tenure">
        <path d="M37.447 12.0027V7.65759H44.8953V18.2078M9.51904 22.9576V50.4808H18.8288M50.4809 22.9576V50.4808H41.1711" stroke="#7ED6C2" stroke-width="1.67442" stroke-linecap="round" stroke-linejoin="round"/>
        <path d="M54.2038 25.966L30.0001 5.79628L5.79639 25.966" stroke="#7ED6C2" stroke-width="1.67442" stroke-linecap="round" stroke-linejoin="round"/>
        <path d="M41.1712 31.8613V54.2036H18.8289V22.5529H31.8614" stroke="white" stroke-width="1.67442" stroke-linecap="round" stroke-linejoin="round"/>
        <path d="M31.8613 31.8613H41.1711L31.8613 22.5529V31.8613Z" stroke="white" stroke-width="1.67442" stroke-linecap="round" stroke-linejoin="round"/>
        <path d="M29.9721 40.8139V49.0604H27.907M27.907 45.9208H29.9721M32.0372 38.7627C32.0372 39.9032 31.1127 40.8278 29.9721 40.8278C28.8315 40.8278 27.907 39.9032 27.907 38.7627C27.907 37.6221 28.8315 36.6976 29.9721 36.6976C31.1127 36.6976 32.0372 37.6221 32.0372 38.7627Z" stroke="#7ED6C2" stroke-width="1.67442" stroke-miterlimit="10" stroke-linecap="round" stroke-linejoin="round"/>
    </symbol>

    <symbol width="60" height="60" viewBox="0 0 60 60" fill="none" xmlns="http://www.w3.org/2000/svg" id="feature-bathrooms">
        <path d="M24.6 24.0279H27.907V26.4698" stroke="#7ED6C2" stroke-width="1.67442" stroke-miterlimit="10" stroke-linecap="round" stroke-linejoin="round"/>
        <path d="M24.6001 35.3721V23.6232C24.4885 21.4186 22.6605 19.6604 20.428 19.6604H12.8233C10.5908 19.6604 8.76287 21.4186 8.65125 23.6232V35.386" stroke="white" stroke-width="1.67442" stroke-miterlimit="10" stroke-linecap="round" stroke-linejoin="round"/>
        <path d="M25.4512 38.3162H7.77211M8.66514 23.8325H24.6M45.0977 38.7069V46.9255C45.0977 48.7255 45.6837 50.4837 46.7582 51.9209L46.8977 52.1162H37.5907C39.0558 50.5674 39.8791 48.5023 39.8791 46.3674V38.693M20.3861 52.0604H12.6V47.3581C12.6 45.3767 11.693 43.493 10.1303 42.265C8.58141 41.0232 7.67444 39.1534 7.67444 37.172V37.1023C7.67444 36.0139 8.55351 35.1348 9.62793 35.1348L23.6093 35.1069C24.6977 35.1069 25.5768 35.986 25.5768 37.0743C25.5768 39.1116 24.614 41.0371 22.9814 42.265C21.3489 43.493 20.3861 45.4185 20.3861 47.4557V52.0604Z" stroke="white" stroke-width="1.67442" stroke-miterlimit="10" stroke-linecap="round" stroke-linejoin="round"/>
        <path d="M52.3954 30.7395V11.4418H32.6512V30.7395" stroke="#7ED6C2" stroke-width="1.67442" stroke-miterlimit="10" stroke-linecap="round" stroke-linejoin="round"/>
        <path d="M42.4884 30.7395V26.9442C42.4884 25.8558 43.3675 24.9767 44.4558 24.9767C45.5442 24.9767 46.4233 25.8558 46.4233 26.9442V27.7395M44.2744 38.7488H40.7024C37.1024 38.7488 33.9768 36.3069 33.0977 32.8186L32.5814 30.7814H52.3954L51.8791 32.8186C51 36.3069 47.8605 38.7488 44.2744 38.7488Z" stroke="white" stroke-width="1.67442" stroke-miterlimit="10" stroke-linecap="round" stroke-linejoin="round"/>
        <path d="M42.1395 16.7441L37.9535 21.2372M48.4884 15.893L44.4558 20.2186" stroke="#7ED6C2" stroke-width="1.67442" stroke-miterlimit="10" stroke-linecap="round" stroke-linejoin="round"/>
    </symbol>

    <symbol width="60" height="60" viewBox="0 0 60 60" fill="none" xmlns="http://www.w3.org/2000/svg" id="feature-living-rooms">
        <path d="M18.0557 39.8234L11.958 43.9537M42.8791 39.8234L48.9767 43.9537" stroke="#7ED6C2" stroke-width="1.67442" stroke-miterlimit="10" stroke-linecap="round" stroke-linejoin="round"/>
        <path d="M51.6558 25.3256C54.4326 25.3256 56.5256 27.8651 55.9814 30.586L54.8372 36.3628C54.4326 38.3721 52.6744 39.8372 50.6093 39.8372H9.39072C7.33956 39.8372 5.56746 38.386 5.16281 36.3628L4.01863 30.586C3.47444 27.8651 5.56746 25.3256 8.34421 25.3256V23.986C8.34421 21.2093 10.5768 18.9767 13.3396 18.9767H46.6465C49.4233 18.9767 51.6558 21.2093 51.6558 23.9721V25.3256Z" stroke="white" stroke-width="1.67442" stroke-miterlimit="10" stroke-linecap="round" stroke-linejoin="round"/>
        <path d="M43.6883 33.363L41.4 28.9537C41.1069 28.3816 41.3302 27.6839 41.9023 27.3909L47.5953 24.4328C48.1674 24.1398 48.8651 24.363 49.1581 24.9351L50.6511 27.8235M17.6511 33.2932L19.9116 28.9537C20.2046 28.3816 19.9814 27.6839 19.4093 27.3909L13.7162 24.4328C13.1442 24.1398 12.4465 24.363 12.1535 24.9351L9.9209 29.2328" stroke="#7ED6C2" stroke-width="1.67442" stroke-miterlimit="10" stroke-linecap="round" stroke-linejoin="round"/>
        <path d="M51.6559 25.3258L50.6512 27.8095L48.921 32.0932C48.628 32.8188 48.0698 33.349 47.3861 33.6281C47.0512 33.7676 46.6745 33.8374 46.2977 33.8234C46.1024 33.8234 45.907 33.7955 45.7117 33.7397C45.1117 33.5862 44.4419 33.4607 43.6884 33.3351C37.1024 32.2746 25.1861 32.2607 17.6512 33.2793C16.4094 33.4467 15.2791 33.6421 14.3163 33.8653C14.2884 33.8793 14.2466 33.8793 14.2187 33.8932C13.7582 33.9909 13.2977 33.949 12.8652 33.8234C12.6419 33.7537 12.4326 33.656 12.2512 33.5444M12.028 33.4048C11.6373 33.1118 11.3163 32.7072 11.1349 32.2328L9.92098 29.2328L8.34424 25.3258M29.9791 25.5246H29.9931M22.2487 25.5246H22.2627M37.7301 25.5246H37.7441" stroke="white" stroke-width="1.67442" stroke-miterlimit="10" stroke-linecap="round" stroke-linejoin="round"/>
    </symbol>
    
    <symbol width="60" height="60" viewBox="0 0 60 60" fill="none" xmlns="http://www.w3.org/2000/svg" id="feature-bedrooms">
        <path d="M17.9971 20.0623H14.058M14.058 20.0623V12.4186C14.058 9.79813 16.1818 7.67441 18.8022 7.67441H41.2311C43.8515 7.67441 45.9752 9.79813 45.9752 12.4186V20.0623M14.058 20.0623L12.1757 26.2925L7.67432 41.1879M45.9752 20.0623H42.1506M45.9752 20.0623L47.8576 26.2925L52.359 41.1879M31.9939 20.0623H28.1552M7.67432 41.1879H52.359M7.67432 41.1879V52.3591M52.359 41.1879V52.3591M7.67432 48.6349H52.359" stroke="white" stroke-width="1.67442" stroke-miterlimit="10" stroke-linecap="round" stroke-linejoin="round"/>
        <path d="M28.1539 14.6387H17.9971V22.6955H28.1539V14.6387ZM42.1506 14.6387H31.9939V22.6955H42.1506V14.6387ZM52.359 41.188H7.67432L12.1757 26.2927H47.8576L52.359 41.188Z" stroke="#7ED6C2" stroke-width="1.67442" stroke-miterlimit="10" stroke-linecap="round" stroke-linejoin="round"/>
    </symbol>

    <symbol width="60" height="60" viewBox="0 0 60 60" fill="none" xmlns="http://www.w3.org/2000/svg" id="feature-kitchens">
        <path d="M15.3489 12.5581L7.67444 17.4419V20.9302H30M15.3489 12.5581H22.3256M15.3489 12.5581V6.97675H22.3256V12.5581M22.3256 12.5581L30 17.4419" stroke="#7ED6C2" stroke-width="1.67442" stroke-miterlimit="10" stroke-linecap="round" stroke-linejoin="round"/>
        <path d="M30 29.3025H7.67444V52.3258H30M30 52.3258V7.67459H52.3256V52.3258H30Z" stroke="white" stroke-width="1.67442" stroke-miterlimit="10" stroke-linecap="round" stroke-linejoin="round"/>
        <path d="M16.7442 41.8607H20.9302M25.814 37.6746H11.8605V48.1397H25.814V37.6746Z" stroke="#7ED6C2" stroke-width="1.67442" stroke-miterlimit="10" stroke-linecap="round" stroke-linejoin="round"/>
        <path d="M30.6976 34.8839H52.3255" stroke="white" stroke-width="1.67442" stroke-miterlimit="10" stroke-linecap="round" stroke-linejoin="round"/>
        <path d="M34.8837 27.2095V30.6978M34.8837 38.3723V41.8606" stroke="#7ED6C2" stroke-width="1.67442" stroke-miterlimit="10" stroke-linecap="round" stroke-linejoin="round"/>
        <path d="M18.8372 33.4885H18.8512M23.7209 33.4885H23.7349M13.9535 33.4885H13.9674" stroke="white" stroke-width="2.09302" stroke-miterlimit="10" stroke-linecap="round" stroke-linejoin="round"/>
    </symbol>

    <symbol width="60" height="60" viewBox="0 0 60 60" fill="none" xmlns="http://www.w3.org/2000/svg" id="feature-dining-rooms">
        <mask id="mask0_171_398" style="mask-type:alpha" maskUnits="userSpaceOnUse" x="7" y="7" width="46" height="46">
        <path d="M7.67371 22.6641V52.3258H9.31603C9.01876 52.0641 8.78073 51.7421 8.61783 51.3812C8.45493 51.0203 8.37091 50.6287 8.37138 50.2327V22.6758H7.90743C7.82937 22.6758 7.75137 22.6719 7.67371 22.6641ZM13.0081 52.3258H47.6881C47.3909 52.0641 47.1528 51.7421 46.9899 51.3812C46.827 51.0203 46.743 50.6287 46.7435 50.2327V36.9769H44.4384V15.2135C44.4384 11.6663 46.7802 8.66613 50.0022 7.67459H16.7163V20.3763C16.7163 21.6461 15.6865 22.6758 14.4167 22.6758H13.9528V50.2327C13.9532 50.6287 13.8692 51.0203 13.7063 51.3812C13.5434 51.7421 13.3054 52.0641 13.0081 52.3258ZM52.3249 50.2327C52.3253 50.6287 52.2413 51.0203 52.0784 51.3812C51.9154 51.7421 51.6774 52.0642 51.3801 52.3258H52.3249V50.2327Z" fill="white"/>
        </mask>
        <g mask="url(#mask0_171_398)">
        <path d="M30.0164 50.3959C41.1905 50.3959 50.2489 41.3374 50.2489 30.1633C50.2489 18.9893 41.1905 9.93079 30.0164 9.93079C18.8423 9.93079 9.78381 18.9893 9.78381 30.1633C9.78381 41.3374 18.8423 50.3959 30.0164 50.3959Z" stroke="#7ED6C2" stroke-width="1.67442" stroke-miterlimit="10" stroke-linecap="round" stroke-linejoin="round"/>
        </g>
        <path d="M30.0168 41.326C36.1819 41.326 41.1796 36.3283 41.1796 30.1632C41.1796 23.9981 36.1819 19.0004 30.0168 19.0004C23.8517 19.0004 18.854 23.9981 18.854 30.1632C18.854 36.3283 23.8517 41.326 30.0168 41.326Z" stroke="#7ED6C2" stroke-width="1.67442" stroke-miterlimit="10" stroke-linecap="round" stroke-linejoin="round"/>
        <path d="M5.60852 7.32683V20.3761C5.60852 21.6459 6.63829 22.6757 7.90806 22.6757H14.4174C15.6871 22.6757 16.7169 21.6459 16.7169 20.3761V7.32683M11.1612 7.31985V15.5887M16.7137 15.6014H5.60852M8.37201 22.6757V50.2326C8.37201 51.7739 9.6214 53.0232 11.1627 53.0232C12.704 53.0232 13.9534 51.7739 13.9534 50.2326V22.6757M52.3255 36.9767H44.439V15.2133C44.439 10.8578 47.9699 7.32683 52.3255 7.32683V36.9767ZM52.3255 36.9767V50.2326C52.3255 51.7739 51.0761 53.0232 49.5348 53.0232C47.9935 53.0232 46.7441 51.7739 46.7441 50.2326V36.9767" stroke="white" stroke-width="1.67442" stroke-miterlimit="10" stroke-linecap="round" stroke-linejoin="round"/>
    </symbol>

    <symbol width="60" height="60" viewBox="0 0 60 60" fill="none" xmlns="http://www.w3.org/2000/svg" id="feature-en-suite">
        <path d="M34.0186 48.9349V52.4373H26.1069V48.9349" stroke="white" stroke-width="1.67442" stroke-miterlimit="10" stroke-linecap="round" stroke-linejoin="round"/>
        <path d="M45.0559 36.8791V7.6745H15.1675V36.8791" stroke="#7ED6C2" stroke-width="1.67442" stroke-miterlimit="10" stroke-linecap="round" stroke-linejoin="round"/>
        <path d="M30.0559 36.8792V31.1443C30.0559 29.4978 31.3954 28.1583 33.0419 28.1583C34.6884 28.1583 36.028 29.4978 36.028 31.1443V32.3443M27.0419 36.935V34.5629M33.0838 36.935V34.5629M32.7628 49.0048H27.3628C21.921 49.0048 17.1768 45.3071 15.8512 40.0327L15.0698 36.935H45.0559L44.2745 40.0327C42.9489 45.3071 38.2047 49.0048 32.7628 49.0048Z" stroke="white" stroke-width="1.67442" stroke-miterlimit="10" stroke-linecap="round" stroke-linejoin="round"/>
        <path d="M32.1348 12.921L23.2046 22.5071M39.1534 14.4001L30.2232 23.9861" stroke="#7ED6C2" stroke-width="1.67442" stroke-miterlimit="10" stroke-linecap="round" stroke-linejoin="round"/>
    </symbol>

    <symbol width="60" height="60" viewBox="0 0 60 60" fill="none" xmlns="http://www.w3.org/2000/svg" id="feature-wcs">
        <path d="M40.9817 13.814H45.5445V17.1628" stroke="#7ED6C2" stroke-width="1.67442" stroke-miterlimit="10" stroke-linecap="round" stroke-linejoin="round"/>
        <path d="M40.9956 29.414V13.5488C40.9956 13.4512 40.9956 13.3535 40.9816 13.2558C40.8281 10.2279 38.3165 7.81396 35.2467 7.81396H24.8095C21.7397 7.81396 19.2281 10.2279 19.0746 13.2558C19.0746 13.3535 19.0607 13.4512 19.0607 13.5488V29.4419" stroke="white" stroke-width="1.67442" stroke-miterlimit="10" stroke-linecap="round" stroke-linejoin="round"/>
        <path d="M42.2375 33.0698H17.8049M19.0747 13.5349H40.9817M35.2049 52.3535H24.5026V45.8931C24.5026 43.1582 23.2468 40.5768 21.1119 38.8884C20.0552 38.052 19.2013 36.9875 18.6141 35.7745C18.0269 34.5615 17.7217 33.2314 17.7212 31.8838V31.7861C17.7212 30.2931 18.9212 29.0931 20.4142 29.0931L39.6421 29.0651C41.1351 29.0651 42.3491 30.2651 42.3491 31.7582C42.3491 34.5628 41.0235 37.214 38.777 38.9024C36.5305 40.5907 35.2049 43.2419 35.2049 46.0465V52.3535Z" stroke="white" stroke-width="1.67442" stroke-miterlimit="10" stroke-linecap="round" stroke-linejoin="round"/>
    </symbol>

    <symbol width="60" height="60" viewBox="0 0 60 60" fill="none" xmlns="http://www.w3.org/2000/svg" id="feature-utility-room">
        <path d="M15.6196 11.6148H18.9182M41.4447 11.6148H44.7433" stroke="#7ED6C2" stroke-width="1.67442" stroke-miterlimit="10" stroke-linecap="round" stroke-linejoin="round"/>
        <path d="M11.8675 15.2498H48.6796M48.6796 7.53488H11.4419V52.5754H48.6796V7.53488Z" stroke="white" stroke-width="1.67442" stroke-miterlimit="10" stroke-linecap="round" stroke-linejoin="round"/>
        <path d="M21.5679 32.5004C21.9753 30.1088 23.4069 27.953 25.553 26.6693M28.7009 25.553C28.8307 25.5349 28.9604 25.5181 29.0916 25.5056M42.3014 33.9125C42.3014 35.52 41.9958 37.0563 41.439 38.4656C39.2916 38.0623 37.6674 36.1772 37.6674 33.9125C37.6674 31.6479 39.2916 29.7628 41.439 29.3595C41.9958 30.7688 42.3014 32.3051 42.3014 33.9125Z" stroke="#7ED6C2" stroke-width="1.67442" stroke-miterlimit="10" stroke-linecap="round" stroke-linejoin="round"/>
        <path d="M41.5994 29.8004C42.1325 31.3172 42.3529 32.8674 42.2943 34.3813C42.1073 39.3237 38.9539 43.8809 34.0046 45.6195C27.5385 47.8911 20.4557 44.4893 18.1855 38.0232C15.9153 31.5586 19.3143 24.4758 25.7818 22.2041C30.7311 20.4655 36.0418 22.0507 39.2776 25.7888C40.2973 26.9679 41.085 28.3289 41.5994 29.8004Z" stroke="white" stroke-width="1.67442" stroke-miterlimit="10" stroke-linecap="round" stroke-linejoin="round"/>
        <path d="M22.0369 11.6148H22.0397M25.1931 11.6148H25.1959M28.3508 11.6148H28.3536" stroke="#7ED6C2" stroke-width="1.67442" stroke-linecap="round" stroke-linejoin="round"/>
    </symbol>

    <symbol width="60" height="60" viewBox="0 0 60 60" fill="none" xmlns="http://www.w3.org/2000/svg" id="feature-conservatory">
        <path d="M24.8788 16.5907C24.1951 14.5534 22.2835 13.1023 20.023 13.1023C17.1904 13.1023 14.9021 15.3907 14.9021 18.2232C14.9021 19.8976 15.7114 21.3767 16.9393 22.3116C16.9532 22.3255 16.9811 22.3395 16.9951 22.3534M20.023 10.2139V7.67438M14.3439 12.5581L11.316 9.51624M11.9997 18.2232H9.46021M25.6881 12.5581L28.73 9.51624" stroke="#7ED6C2" stroke-width="1.67442" stroke-miterlimit="10" stroke-linecap="round" stroke-linejoin="round"/>
        <path d="M7.67407 52.4373H52.3531M18.8508 30.0975V33.8231H41.1904V30.0975M35.3997 29.7209V16.6883M24.6415 29.7209V16.6744" stroke="white" stroke-width="1.67442" stroke-miterlimit="10" stroke-linecap="round" stroke-linejoin="round"/>
        <path d="M46.0043 29.7209H14.0229" stroke="#7ED6C2" stroke-width="1.67442" stroke-miterlimit="10" stroke-linecap="round" stroke-linejoin="round"/>
        <path d="M46.1438 31.8976V52.4372H13.8833V31.8976C13.8833 22.9814 21.0973 15.7674 30.0135 15.7674C38.9159 15.7535 46.1438 22.9814 46.1438 31.8976Z" stroke="white" stroke-width="1.67442" stroke-miterlimit="10" stroke-linecap="round" stroke-linejoin="round"/>
        <path d="M35.9996 52.4371V37.144H24.0415V52.4371M33.0415 44.7907V46.3953" stroke="white" stroke-width="1.67442" stroke-miterlimit="10" stroke-linecap="round" stroke-linejoin="round"/>
    </symbol>

    <symbol width="60" height="60" viewBox="0 0 60 60" fill="none" xmlns="http://www.w3.org/2000/svg" id="feature-other-rooms">
        <path d="M43.0884 7.67444H17.0233V52.3535H43.0884V7.67444Z" stroke="white" stroke-width="1.67442" stroke-miterlimit="10" stroke-linecap="round" stroke-linejoin="round"/>
        <path d="M20.7488 52.3536V11.4001H39.3627V52.3536" stroke="white" stroke-width="1.67442" stroke-miterlimit="10" stroke-linecap="round" stroke-linejoin="round"/>
        <path d="M24.4603 30.0141H27.0417" stroke="#7ED6C2" stroke-width="1.67442" stroke-miterlimit="10" stroke-linecap="round" stroke-linejoin="round"/>
    </symbol>

    <symbol width="60" height="60" viewBox="0 0 60 60" fill="none" xmlns="http://www.w3.org/2000/svg" id="feature-uutside-areas">
        <path d="M49.5349 45.3488H53.7209V38.3721H49.5349M39.7674 38.3721H34.8837M39.7674 45.3488H34.8837M25.1163 38.3721H20.2325M25.1163 45.3488H20.2325M10.4651 38.3721H6.27905V45.3488H10.4651M49.5349 25.1163H53.7209V18.1395H49.5349M39.7674 18.1395H34.8837M39.7674 25.1163H34.8837M25.1163 18.1395H20.2325M25.1163 25.1163H20.2325M10.4651 18.1395H6.27905V25.1163H10.4651M10.4651 12.5581L15.3488 6.97675L20.2325 12.5581V52.3256H10.4651V12.5581ZM25.1163 12.5581L30 6.97675L34.8837 12.5581V52.3256H25.1163V12.5581ZM39.7674 12.5581L44.6511 6.97675L49.5349 12.5581V52.3256H39.7674V12.5581Z" stroke="white" stroke-width="1.67442" stroke-miterlimit="10" stroke-linecap="round" stroke-linejoin="round"/>
        <path d="M30.0698 22.6046C30.6478 22.6046 31.1163 22.1361 31.1163 21.5581C31.1163 20.9801 30.6478 20.5116 30.0698 20.5116C29.4919 20.5116 29.0233 20.9801 29.0233 21.5581C29.0233 22.1361 29.4919 22.6046 30.0698 22.6046Z" fill="#7ED6C2"/>
        <path d="M15.4186 22.6046C15.9966 22.6046 16.4651 22.1361 16.4651 21.5581C16.4651 20.9801 15.9966 20.5116 15.4186 20.5116C14.8406 20.5116 14.3721 20.9801 14.3721 21.5581C14.3721 22.1361 14.8406 22.6046 15.4186 22.6046Z" fill="#7ED6C2"/>
        <path d="M44.721 22.6046C45.2989 22.6046 45.7675 22.1361 45.7675 21.5581C45.7675 20.9801 45.2989 20.5116 44.721 20.5116C44.143 20.5116 43.6744 20.9801 43.6744 21.5581C43.6744 22.1361 44.143 22.6046 44.721 22.6046Z" fill="#7ED6C2"/>
        <path d="M44.721 42.8372C45.2989 42.8372 45.7675 42.3687 45.7675 41.7907C45.7675 41.2127 45.2989 40.7442 44.721 40.7442C44.143 40.7442 43.6744 41.2127 43.6744 41.7907C43.6744 42.3687 44.143 42.8372 44.721 42.8372Z" fill="#7ED6C2"/>
        <path d="M30.0698 42.8372C30.6478 42.8372 31.1163 42.3687 31.1163 41.7907C31.1163 41.2127 30.6478 40.7442 30.0698 40.7442C29.4919 40.7442 29.0233 41.2127 29.0233 41.7907C29.0233 42.3687 29.4919 42.8372 30.0698 42.8372Z" fill="#7ED6C2"/>
        <path d="M15.4186 42.8372C15.9966 42.8372 16.4651 42.3687 16.4651 41.7907C16.4651 41.2127 15.9966 40.7442 15.4186 40.7442C14.8406 40.7442 14.3721 41.2127 14.3721 41.7907C14.3721 42.3687 14.8406 42.8372 15.4186 42.8372Z" fill="#7ED6C2"/>
    </symbol>

    <symbol width="60" height="60" viewBox="0 0 60 60" fill="none" xmlns="http://www.w3.org/2000/svg" id="feature-outbuildings">
        <path d="M24.0837 43.4929H15.0419V52.5347H24.0837M24.0837 43.4929V52.5347M24.0837 43.4929H33.1256V52.5347H24.0837M28.6047 34.451H19.5628V43.4929H28.6047V34.451Z" stroke="#7ED6C2" stroke-width="1.67442" stroke-miterlimit="10" stroke-linecap="round" stroke-linejoin="round"/>
        <path d="M49.5628 18.5721L29.9302 7.39532L10.4651 18.5721V52.5488H49.5628V18.5721Z" stroke="white" stroke-width="1.67442" stroke-miterlimit="10" stroke-linecap="round" stroke-linejoin="round"/>
        <path d="M15.0419 52.5487V22.2277H44.8186V52.5487M15.0419 25.9393H44.8186M15.0419 29.7766H44.8186" stroke="white" stroke-width="1.67442" stroke-miterlimit="10" stroke-linecap="round" stroke-linejoin="round"/>
    </symbol>

    <symbol width="60" height="60" viewBox="0 0 60 60" fill="none" xmlns="http://www.w3.org/2000/svg" id="feature-parking">
    <mask id="mask0_171_661" style="mask-type:alpha" maskUnits="userSpaceOnUse" x="14" y="6" width="40" height="35">
        <path d="M53.5196 6.03125H14.1868V28.258L15.1395 23.0791C15.4186 21.5302 16.6604 20.4279 18.0837 20.4279H32.9023C34.3395 20.4279 35.5674 21.5442 35.8465 23.0791L38.1209 35.4419H14.1868V40.6739H53.5196V6.03125Z" fill="#D9D9D9"/>
        </mask>
        <g mask="url(#mask0_171_661)">
        <path d="M41.5395 22.6885C41.6093 22.3815 41.6511 22.0606 41.6511 21.7397C41.6511 19.535 39.8651 17.749 37.6604 17.749C35.4558 17.749 33.6697 19.535 33.6697 21.7397C33.6697 22.0745 33.7116 22.3955 33.7814 22.6885M22.786 29.7071H27.9628V26.1769H22.786C21.8093 26.1769 21.0139 26.9722 21.0139 27.949C21.0279 28.9118 21.8232 29.7071 22.786 29.7071ZM46.0046 29.7071H40.8279V26.1769H46.0046C46.9814 26.1769 47.7767 26.9722 47.7767 27.949C47.7627 28.9118 46.9814 29.7071 46.0046 29.7071Z" stroke="#7ED6C2" stroke-width="1.67442" stroke-miterlimit="10" stroke-linecap="round" stroke-linejoin="round"/>
        <path d="M21.7674 22.6884L24.0418 10.3256C24.3208 8.77676 25.5627 7.67444 26.986 7.67444H41.8046C43.2418 7.67444 44.4697 8.79072 44.7488 10.3256L47.0232 22.6884M36.9208 11.5954H31.8836M19.3395 35.4419V34.8698M27.0278 35.4419V34.8698M41.7767 37.8279V34.8698M20.679 22.6884H48.0976C49.3534 22.6884 50.4418 23.6372 50.6371 24.921L52.1999 34.8837H16.5767L18.1395 24.907C18.3488 23.6233 19.4232 22.6884 20.679 22.6884Z" stroke="#7ED6C2" stroke-width="1.67442" stroke-miterlimit="10" stroke-linecap="round" stroke-linejoin="round"/>
        <path d="M49.451 34.8699V39.6141H42.0557" stroke="#7ED6C2" stroke-width="1.67442" stroke-miterlimit="10" stroke-linecap="round" stroke-linejoin="round"/>
        </g>
        <path d="M12.865 35.4419L15.1394 23.0791C15.4185 21.5302 16.6604 20.4279 18.0836 20.4279H32.9022C34.3394 20.4279 35.5673 21.5442 35.8464 23.0791L38.1208 35.4419M11.7766 35.4419H39.2092C40.465 35.4419 41.5534 36.3907 41.7487 37.6744L43.3115 47.6372H7.67432L9.23711 37.6744C9.44641 36.3907 10.5208 35.4419 11.7766 35.4419Z" stroke="white" stroke-width="1.67442" stroke-miterlimit="10" stroke-linecap="round" stroke-linejoin="round"/>
        <path d="M32.6373 35.4419C32.707 35.1349 32.7489 34.814 32.7489 34.493C32.7489 32.2884 30.9628 30.5023 28.7582 30.5023C26.5535 30.5023 24.7675 32.2884 24.7675 34.493C24.7675 34.8279 24.8093 35.1488 24.8791 35.4419M28.0187 24.3628H22.9814M18.1256 47.6372V52.3674H10.4373V47.6372M40.5489 47.6372V52.3674H32.8745V47.6372M28.7024 44.3581H22.2838M13.8838 42.4605H19.0605V38.9302H13.8838C12.907 38.9302 12.1117 39.7256 12.1117 40.7023C12.1256 41.6791 12.921 42.4605 13.8838 42.4605ZM37.1024 42.4605H31.9256V38.9302H37.1024C38.0791 38.9302 38.8745 39.7256 38.8745 40.7023C38.8605 41.6791 38.0791 42.4605 37.1024 42.4605Z" stroke="white" stroke-width="1.67442" stroke-miterlimit="10" stroke-linecap="round" stroke-linejoin="round"/>
    </symbol>

    <symbol width="20" height="20" viewBox="0 0 20 20" fill="none" xmlns="http://www.w3.org/2000/svg" id="info">
        <path d="M9.99996 13.3333V9.99996M9.99996 6.66663H10.0083M18.3333 9.99996C18.3333 14.6023 14.6023 18.3333 9.99996 18.3333C5.39759 18.3333 1.66663 14.6023 1.66663 9.99996C1.66663 5.39759 5.39759 1.66663 9.99996 1.66663C14.6023 1.66663 18.3333 5.39759 18.3333 9.99996Z" stroke="white" stroke-width="1.66667" stroke-linecap="round" stroke-linejoin="round"/>
    </symbol>

    <symbol width="24" height="24" viewBox="0 0 24 24" fill="none" xmlns="http://www.w3.org/2000/svg" id="star-filled">
        <path d="M12 3.75L14.68 9.18L20.67 10.05L16.34 14.28L17.36 20.25L12 17.43L6.63996 20.25L7.65996 14.28L3.32996 10.05L9.31996 9.18L12 3.75Z" fill="currentColor" stroke="currentColor" stroke-width="2.5" stroke-linecap="round" stroke-linejoin="round"/>
    </symbol>

    <symbol width="24" height="24" viewBox="0 0 24 24" fill="none" xmlns="http://www.w3.org/2000/svg" id="clock">
        <mask id="mask0_171_844" style="mask-type:alpha" maskUnits="userSpaceOnUse" x="2" y="2" width="20" height="20">
        <path fill-rule="evenodd" clip-rule="evenodd" d="M4.93006 4.93006C8.83306 1.02706 15.1671 1.02706 19.0701 4.93006C22.9731 8.83306 22.9731 15.1671 19.0701 19.0701C15.1671 22.9731 8.83306 22.9731 4.93006 19.0701C1.02706 15.1671 1.02706 8.83306 4.93006 4.93006ZM12.0001 8.00006C12.2653 8.00006 12.5196 8.10541 12.7072 8.29295C12.8947 8.48049 13.0001 8.73484 13.0001 9.00006V11.5861L15.9571 14.5431C16.1392 14.7317 16.24 14.9843 16.2377 15.2465C16.2355 15.5087 16.1303 15.7595 15.9449 15.9449C15.7595 16.1303 15.5087 16.2355 15.2465 16.2377C14.9843 16.24 14.7317 16.1392 14.5431 15.9571L11.2981 12.7121C11.2037 12.619 11.1288 12.5082 11.0776 12.386C11.0264 12.2637 11.0001 12.1326 11.0001 12.0001V9.00006C11.0001 8.73484 11.1054 8.48049 11.293 8.29295C11.4805 8.10541 11.7348 8.00006 12.0001 8.00006Z" fill="#16C72E"/>
        </mask>
        <g mask="url(#mask0_171_844)">
        <path d="M18.5401 18.5401C14.9301 22.1501 9.07006 22.1501 5.46006 18.5401C1.85006 14.9301 1.85006 9.07006 5.46006 5.46006C9.07006 1.85006 14.9301 1.85006 18.5401 5.46006C22.1501 9.07006 22.1501 14.9301 18.5401 18.5401Z" fill="currentColor" stroke="currentColor" stroke-width="1.5" stroke-miterlimit="10"/>
        </g>
    </symbol>

    <symbol width="25" height="24" viewBox="0 0 25 24" fill="none" xmlns="http://www.w3.org/2000/svg" id="home">
        <path d="M9.75 18.25V13.25H15.25V18.25C15.25 18.7804 15.4607 19.2891 15.8358 19.6642C16.2109 20.0393 16.7196 20.25 17.25 20.25H19.75C20.0152 20.25 20.2696 20.1446 20.4571 19.9571C20.6446 19.7696 20.75 19.5152 20.75 19.25V9.77199C20.75 9.61094 20.711 9.45229 20.6365 9.30952C20.562 9.16676 20.4541 9.0441 20.322 8.95198L13.072 3.89898C12.9042 3.78197 12.7046 3.71924 12.5 3.71924C12.2954 3.71924 12.0958 3.78197 11.928 3.89898L4.678 8.95198C4.5459 9.0441 4.43801 9.16676 4.36349 9.30952C4.28898 9.45229 4.25004 9.61094 4.25 9.77199V19.25C4.25 19.5152 4.35536 19.7696 4.54289 19.9571C4.73043 20.1446 4.98478 20.25 5.25 20.25H7.75C8.01264 20.25 8.27272 20.1983 8.51537 20.0977C8.75802 19.9972 8.9785 19.8499 9.16421 19.6642C9.34993 19.4785 9.49725 19.258 9.59776 19.0154C9.69827 18.7727 9.75 18.5126 9.75 18.25Z" fill="currentColor" stroke="currentColor" stroke-width="1.5" stroke-linecap="round" stroke-linejoin="round"/>
    </symbol>

    <symbol width="25" height="24" viewBox="0 0 25 24" fill="none" xmlns="http://www.w3.org/2000/svg" id="drop">
        <path d="M19.75 14.6801C19.375 18.2301 16.2708 21.0001 12.5 21.0001C8.72917 21.0001 5.625 18.2301 5.25 14.6801H19.75Z" fill="currentColor" stroke="currentColor" stroke-width="2" stroke-linecap="round" stroke-linejoin="round"/>
        <path d="M19.7917 13.95C19.7917 14.19 19.7917 14.44 19.7501 14.68H5.25006C5.16685 13.9554 5.20554 13.2228 5.36464 12.51C5.59381 11.37 6.12506 10.33 6.87506 9.46L12.5001 3L18.1251 9.46C18.8646 10.33 19.4063 11.37 19.6355 12.51C19.7501 12.98 19.7917 13.45 19.7917 13.95Z" stroke="currentColor" stroke-width="2" stroke-linecap="round" stroke-linejoin="round"/>
    </symbol>

    <symbol width="25" height="24" viewBox="0 0 25 24" fill="none" xmlns="http://www.w3.org/2000/svg" id="shield">
        <path d="M12.5 20.25L13.6979 19.51C17.5625 17.12 20.1354 13.22 20.7396 8.85L21.0937 6.25C21.0937 6.25 14.5833 5 12.5 3.75C10.4167 5 3.90625 6.25 3.90625 6.25L4.26042 8.85C4.86458 13.22 7.4375 17.12 11.3021 19.51L12.5 20.25Z" fill="currentColor" stroke="currentColor" stroke-width="1.5" stroke-linecap="round" stroke-linejoin="round"/>
    </symbol>

    <symbol width="25" height="24" viewBox="0 0 25 24" fill="none" xmlns="http://www.w3.org/2000/svg" id="info-filled">
        <mask id="mask0_171_1008" style="mask-type:alpha" maskUnits="userSpaceOnUse" x="2" y="1" width="21" height="22">
        <path fill-rule="evenodd" clip-rule="evenodd" d="M23 1H2V23H23V1ZM11.25 8.25C11.25 8.938 11.813 9.5 12.5 9.5C13.187 9.5 13.75 8.938 13.75 8.25C13.75 7.562 13.188 7 12.5 7C11.8 7 11.25 7.563 11.25 8.25ZM13.5 12C13.5 11.7348 13.3946 11.4804 13.2071 11.2929C13.0196 11.1054 12.7652 11 12.5 11C12.2348 11 11.9804 11.1054 11.7929 11.2929C11.6054 11.4804 11.5 11.7348 11.5 12V16C11.5 16.2652 11.6054 16.5196 11.7929 16.7071C11.9804 16.8946 12.2348 17 12.5 17C12.7652 17 13.0196 16.8946 13.2071 16.7071C13.3946 16.5196 13.5 16.2652 13.5 16V12Z" fill="#D9D9D9"/>
        </mask>
        <g mask="url(#mask0_171_1008)">
        <path d="M12.5 21.25C14.9533 21.25 17.306 20.2754 19.0407 18.5407C20.7754 16.806 21.75 14.4533 21.75 12C21.75 9.54675 20.7754 7.19397 19.0407 5.45926C17.306 3.72455 14.9533 2.75 12.5 2.75C10.0467 2.75 7.69397 3.72455 5.95926 5.45926C4.22455 7.19397 3.25 9.54675 3.25 12C3.25 14.4533 4.22455 16.806 5.95926 18.5407C7.69397 20.2754 10.0467 21.25 12.5 21.25Z" fill="currentColor" stroke="currentColor" stroke-width="1.5" stroke-miterlimit="10" stroke-linecap="round"/>
        </g>
    </symbol>

    <symbol width="36" height="36" viewBox="0 0 36 36"  fill="none" xmlns="http://www.w3.org/2000/svg" id="thumb"> 
        <mask id="mask0_171_877" style="mask-type:alpha" maskUnits="userSpaceOnUse" x="4" y="4" width="28" height="28">
        <path d="M17.7795 5.055C17.8789 4.88593 18.0207 4.74577 18.1909 4.64841C18.3612 4.55106 18.5539 4.4999 18.75 4.5H19.368C20.0291 4.49994 20.6805 4.65877 21.2673 4.9631C21.8542 5.26743 22.3593 5.70834 22.7401 6.2487C23.121 6.78906 23.3663 7.41304 23.4556 8.06805C23.5448 8.72307 23.4754 9.38995 23.253 10.0125L21.471 15H27.372C27.9841 15 28.5885 15.1361 29.1415 15.3987C29.6944 15.6612 30.182 16.0435 30.5688 16.5178C30.9557 16.9921 31.2322 17.5466 31.3782 18.141C31.5242 18.7354 31.5361 19.3549 31.413 19.9545L29.718 28.2045C29.5271 29.1346 29.0211 29.9704 28.2854 30.5708C27.5498 31.1712 26.6295 31.4994 25.68 31.5H12V14.9145L17.7795 5.055ZM9 15H5.625C5.32663 15 5.04048 15.1185 4.8295 15.3295C4.61853 15.5405 4.5 15.8266 4.5 16.125V30.375C4.5 30.996 5.004 31.5 5.625 31.5H9V15Z" fill="#16C72E"/>
        </mask>
        <g mask="url(#mask0_171_877)">
        <path d="M12.375 16.125H5.625V30.375H12.375V16.125ZM12.375 30.375H25.6785C26.3694 30.3749 27.0391 30.1364 27.5745 29.6997C28.1099 29.2629 28.4781 28.6548 28.617 27.978L30.3105 19.728C30.4 19.2919 30.3913 18.8413 30.285 18.4089C30.1787 17.9766 29.9776 17.5733 29.6961 17.2283C29.4146 16.8834 29.0599 16.6054 28.6576 16.4146C28.2554 16.2237 27.8157 16.1248 27.3705 16.125H19.875L22.194 9.6345C22.3558 9.18167 22.4064 8.69657 22.3415 8.2201C22.2766 7.74363 22.0981 7.28973 21.8211 6.89668C21.544 6.50363 21.1766 6.18293 20.7497 5.96161C20.3227 5.74029 19.8489 5.62485 19.368 5.625H18.75L12.375 16.5" fill="#16C72E"/>
        <path d="M12.375 30.375H5.625V16.125H12.375V30.375ZM12.375 30.375H25.6785C26.3694 30.3749 27.0391 30.1364 27.5745 29.6997C28.1099 29.2629 28.4781 28.6548 28.617 27.978L30.3105 19.728C30.4 19.2919 30.3913 18.8413 30.285 18.4089C30.1787 17.9766 29.9776 17.5733 29.6961 17.2283C29.4146 16.8834 29.0599 16.6054 28.6576 16.4146C28.2554 16.2237 27.8157 16.1248 27.3705 16.125H19.875L22.194 9.6345C22.3558 9.18167 22.4064 8.69657 22.3415 8.2201C22.2766 7.74363 22.0981 7.28973 21.8211 6.89668C21.544 6.50363 21.1766 6.18293 20.7497 5.96161C20.3227 5.74029 19.8489 5.62485 19.368 5.625H18.75L12.375 16.5" stroke="#16C72E" stroke-width="2.25" stroke-linecap="round" stroke-linejoin="round"/>
        </g>
    </symbol>

    <symbol width="36" height="36" viewBox="0 0 36 36" fill="none" xmlns="http://www.w3.org/2000/svg" id="alert">
        <mask id="mask0_171_953" style="mask-type:alpha" maskUnits="userSpaceOnUse" x="1" y="1" width="34" height="32">
        <path fill-rule="evenodd" clip-rule="evenodd" d="M34.5 1.5H1.5V33H34.5V1.5ZM19.5 13.5C19.5 13.1022 19.342 12.7206 19.0607 12.4393C18.7794 12.158 18.3978 12 18 12C17.6022 12 17.2206 12.158 16.9393 12.4393C16.658 12.7206 16.5 13.1022 16.5 13.5V19.5C16.5 19.8978 16.658 20.2794 16.9393 20.5607C17.2206 20.842 17.6022 21 18 21C18.3978 21 18.7794 20.842 19.0607 20.5607C19.342 20.2794 19.5 19.8978 19.5 19.5V13.5ZM18 27.375C18.4973 27.375 18.9742 27.1775 19.3258 26.8258C19.6775 26.4742 19.875 25.9973 19.875 25.5C19.875 25.0027 19.6775 24.5258 19.3258 24.1742C18.9742 23.8225 18.4973 23.625 18 23.625C17.5027 23.625 17.0258 23.8225 16.6742 24.1742C16.3225 24.5258 16.125 25.0027 16.125 25.5C16.125 25.9973 16.3225 26.4742 16.6742 26.8258C17.0258 27.1775 17.5027 27.375 18 27.375Z" fill="#D9D9D9"/>
        </mask>
        <g mask="url(#mask0_171_953)">
        <path d="M6.59857 30.375C6.34076 30.375 6.08729 30.3086 5.86263 30.1821C5.63796 30.0557 5.44968 29.8734 5.31596 29.653C5.18223 29.4326 5.10757 29.1814 5.09918 28.9238C5.09079 28.6661 5.14896 28.4106 5.26807 28.182L16.6696 6.30295C16.7963 6.05955 16.9873 5.85558 17.2219 5.71323C17.4565 5.57088 17.7257 5.49561 18.0001 5.49561C18.2745 5.49561 18.5436 5.57088 18.7782 5.71323C19.0128 5.85558 19.2039 6.05955 19.3306 6.30295L30.7321 28.182C30.8512 28.4106 30.9093 28.6661 30.901 28.9238C30.8926 29.1814 30.8179 29.4326 30.6842 29.653C30.5505 29.8734 30.3622 30.0557 30.1375 30.1821C29.9128 30.3086 29.6594 30.375 29.4016 30.375H6.59857Z" fill="#BE0101" stroke="#BE0101" stroke-width="2.25" stroke-linecap="round" stroke-linejoin="round"/>
        </g>
    </symbol>

    <symbol width="36" height="36" viewBox="0 0 36 36" fill="none" xmlns="http://www.w3.org/2000/svg" id="alram">
        <mask id="mask0_171_167" style="mask-type:alpha" maskUnits="userSpaceOnUse" x="7" y="5" width="22" height="25">
        <path fill-rule="evenodd" clip-rule="evenodd" d="M28.8 5.99976H7.19995V29.9998H28.8V5.99976ZM19.44 14.9998C19.44 14.6019 19.2882 14.2204 19.0182 13.9391C18.7481 13.6578 18.3819 13.4998 18 13.4998C17.618 13.4998 17.2518 13.6578 16.9817 13.9391C16.7117 14.2204 16.56 14.6019 16.56 14.9998V17.9998C16.56 18.4768 16.7731 18.8998 17.1057 19.1758L19.859 22.0573C19.9915 22.2009 20.15 22.3155 20.3255 22.3946C20.501 22.4737 20.6898 22.5156 20.8809 22.5179C21.0721 22.5202 21.2618 22.4828 21.4389 22.4079C21.6161 22.333 21.7771 22.2221 21.9127 22.0817C22.0483 21.9412 22.1556 21.7741 22.2285 21.59C22.3015 21.4059 22.3384 21.2085 22.3373 21.0094C22.3362 20.8102 22.2971 20.6133 22.2222 20.4301C22.1472 20.2469 22.038 20.081 21.9009 19.9423L19.44 17.3653V14.9998Z" fill="#D9D9D9"/>
        </mask>
        <g mask="url(#mask0_171_167)">
        <path d="M24.3632 24.6434C20.8468 28.3064 15.1386 28.3064 11.6365 24.6434C8.12148 20.9804 8.12148 15.0359 11.6365 11.3879C12.4718 10.5168 13.4638 9.82577 14.5557 9.35429C15.6475 8.88281 16.8179 8.64014 17.9999 8.64014C19.1819 8.64014 20.3522 8.88281 21.4441 9.35429C22.536 9.82577 23.5279 10.5168 24.3632 11.3879C27.8783 15.0509 27.8783 20.9954 24.3632 24.6434Z" fill="#D47C2F" stroke="#D47C2F" stroke-width="2.16" stroke-miterlimit="10"/>
        </g>
        <path d="M9.35998 29.9998L12.24 25.4998M26.64 29.9998L23.76 25.4998M25.2 5.99976L29.52 10.4998M10.8 5.99976L6.47998 10.4998" stroke="#D47C2F" stroke-width="2.88" stroke-linecap="round" stroke-linejoin="round"/>
    </symbol>

    <symbol width="16" height="16" viewBox="0 0 16 16" fill="none" xmlns="http://www.w3.org/2000/svg" id="jobs-person">
        <path d="M12.6667 14V12.6667C12.6667 11.9594 12.3857 11.2811 11.8856 10.781C11.3855 10.281 10.7072 10 10 10H6C5.29275 10 4.61448 10.281 4.11438 10.781C3.61428 11.2811 3.33333 11.9594 3.33333 12.6667V14M10.6667 4.66667C10.6667 6.13943 9.47276 7.33333 8 7.33333C6.52724 7.33333 5.33333 6.13943 5.33333 4.66667C5.33333 3.19391 6.52724 2 8 2C9.47276 2 10.6667 3.19391 10.6667 4.66667Z" stroke="white" stroke-width="1.33333" stroke-linecap="round" stroke-linejoin="round"/>
    </symbol>

    <symbol width="16" height="16" viewBox="0 0 16 16" fill="none" xmlns="http://www.w3.org/2000/svg" id="jobs-home">
        <g clip-path="url(#clip0_190_90)">
        <path d="M6 14.6667V8.00001H10V14.6667M2 6.00001L8 1.33334L14 6.00001V13.3333C14 13.687 13.8595 14.0261 13.6095 14.2762C13.3594 14.5262 13.0203 14.6667 12.6667 14.6667H3.33333C2.97971 14.6667 2.64057 14.5262 2.39052 14.2762C2.14048 14.0261 2 13.687 2 13.3333V6.00001Z" stroke="white" stroke-width="1.33333" stroke-linecap="round" stroke-linejoin="round"/>
        </g>
        <defs>
        <clipPath id="clip0_190_90">
        <rect width="16" height="16" fill="white"/>
        </clipPath>
        </defs>
    </symbol>

    <symbol width="24" height="24" viewBox="0 0 24 24" fill="none" xmlns="http://www.w3.org/2000/svg" id="jobs-arrow-right-top">
        <path d="M7 7H17M17 7V17M17 7L7 17" stroke="white" stroke-width="2" stroke-linecap="round" stroke-linejoin="round"/>
    </symbol>


</svg>
