<svg width="219" height="58" viewBox="0 0 219 58" fill="none" xmlns="http://www.w3.org/2000/svg">
<path d="M55.093 39.375C53.7826 39.0019 51.9718 39.0519 50.657 39.334C53.546 37.828 56.0893 35.8762 58.6054 33.3693L57.9001 32.5685C52.6725 37.6278 46.5531 40.6307 41.1843 41.8591C39.3462 42.2822 37.7174 42.5006 36.4117 42.6007L36.4799 43.6927C37.0668 43.6472 37.7175 43.5789 38.4227 43.4834C38.6547 43.4515 38.8867 43.4151 39.1279 43.3787V54.4892L30.6244 42.6781C28.9819 42.4278 27.5578 42.0866 26.3886 41.7408V42.8783C26.7252 42.9738 27.0847 43.0693 27.4577 43.1603C27.7626 43.2331 28.0811 43.3059 28.4087 43.3787V48.7383C25.4786 48.2015 23.5859 47.4326 23.2174 47.2779C22.18 45.6627 20.5376 44.5162 18.5767 44.0521C16.5611 43.5744 14.4455 43.8701 12.6256 44.8847L12.1524 45.1486L12.4208 45.5854C14.491 48.9749 19.0862 50.1397 22.7942 48.2743C23.1446 48.429 24.9918 49.1979 27.9355 49.7575C28.0902 49.7893 28.2449 49.8166 28.4087 49.8439V55.9087H26.2748V57.0598H31.8619V55.9087H29.6553V43.629L39.3781 57.1281H40.3518V49.8394C43.4228 49.3116 46.8033 48.3243 50.3248 46.5999L49.9153 45.6172C46.5394 47.2688 43.3 48.2242 40.3518 48.7429V43.1512C40.6839 43.083 41.0251 43.0057 41.38 42.9283C44.0689 42.3459 46.0617 41.7454 48.7688 40.4396C50.5523 43.679 55.2431 45.5353 59.306 43.4424L59.7883 43.2013L59.5426 42.7509C58.5871 41.0174 57.0812 39.9391 55.0884 39.3704M13.6629 45.4944C16.643 44.1294 20.2145 44.9711 22.0617 47.4826C19.0771 48.8475 15.5101 48.0058 13.6629 45.4944ZM49.9972 40.5715C53.041 39.3431 56.8082 40.2531 58.5417 42.8419C55.4979 44.0703 51.7307 43.1603 49.9972 40.5715ZM18.2991 40.1894C16.602 39.3249 14.4091 37.9691 13.0578 37.0045L13.7448 36.1674C15.0961 37.1274 16.6521 38.1465 18.3582 39.0019L18.2991 40.1894ZM24.8917 42.5097C22.9171 41.9365 21.6568 41.5133 19.8233 40.7854L19.8369 39.566C21.5158 40.2804 23.0354 40.7535 24.9235 41.3541L24.8917 42.5097ZM48.4958 34.1473C46.7669 35.1892 44.8378 36.2083 43.2135 36.8771L42.8632 35.7443C44.4829 35.08 46.18 34.2383 47.9089 33.1873L48.4913 34.1473H48.4958ZM75.2756 25.8576C75.1892 25.7985 73.1099 24.3744 69.2836 23.692C65.7848 23.0687 60.084 22.9776 52.8044 26.0988C51.4213 26.6902 50.07 27.2317 48.7642 27.7185C48.7005 27.6957 48.6414 27.6684 48.5777 27.6457C47.2628 27.1361 45.9752 26.5674 44.7058 25.9623C47.6541 25.2161 49.6878 24.5792 49.7197 24.5701L51.0528 24.1515L49.7834 23.5509C48.8325 23.1005 47.6041 22.4817 46.139 21.7128C48.2865 20.7301 50.5113 19.4561 52.7407 17.8137L52.1629 16.9174C49.7106 18.7282 47.2628 20.0704 44.9288 21.0713C43.5002 20.3115 41.8896 19.4334 40.1152 18.4506L40.0424 18.4097C35.2469 15.7526 30.2922 13.0091 24.6869 13.9145C23.8225 11.1165 24.1501 8.88252 25.3285 7.4448C25.9245 6.71684 26.5796 6.22093 27.4122 6.12993C28.2266 6.03894 30.0329 6.01619 30.1239 6.08443C28.8955 4.35098 27.5897 3.49107 26.1929 2.91326C26.061 2.27629 25.5605 1.33449 24.9327 0.847666C23.9818 0.110606 23.0582 0.0287173 22.0436 0.00141885C19.8597 -0.0531781 17.5393 1.47099 15.683 4.03704C12.5209 8.4048 11.5109 14.6334 12.985 20.6982C13.8768 24.3653 15.824 27.3318 18.7723 29.5202C20.7105 30.9579 23.0718 32.0544 25.9882 32.8688C30.961 34.261 33.3906 36.131 34.569 37.7325C31.9483 37.8371 29.1957 37.5323 26.4431 36.8089C19.4684 34.9799 13.5537 30.6394 11.0013 25.4846C10.0413 23.8148 8.41253 22.6091 6.46523 22.0541C4.47244 21.4853 2.3477 21.6855 0.4823 22.6137L0 22.8548L0.245704 23.3052C2.12475 26.7221 6.52893 28.1052 10.2779 26.5492C10.9922 27.8732 11.9203 29.1517 13.0259 30.3574C11.1878 29.5247 9.15413 29.4519 7.25233 30.1526C5.21859 30.9033 3.58068 32.4593 2.63888 34.5295L2.39317 35.0663L2.89363 35.3257C4.00832 35.9035 5.20495 36.1947 6.41064 36.1947C7.29784 36.1947 8.18956 36.0354 9.05401 35.717C11.0878 34.9662 12.7302 33.4102 13.6675 31.3401L13.7675 31.1263C14.5274 31.877 15.3599 32.5913 16.2562 33.2646C19.5412 35.7169 22.0799 36.8953 26.1702 37.9691C28.6543 38.6197 31.1476 38.9473 33.5499 38.9473C36.489 38.9473 39.2916 38.4605 41.7986 37.4959L41.4209 36.3767C40.4882 36.7361 39.51 37.0273 38.4954 37.2457C37.9358 35.2438 36.63 33.7879 35.3152 32.7778C37.6537 32.3001 42.5766 31.149 48.5731 28.9424C48.6368 28.9196 48.7005 28.8969 48.7642 28.8741C50.6979 29.593 52.7043 30.1754 54.8154 30.5393C61.4216 31.6859 68.0916 30.462 75.2119 26.8085L76.0263 26.39L75.2711 25.8622L75.2756 25.8576ZM1.49689 23.2779C4.53612 22.0495 8.06217 23.055 9.79563 25.6438C6.75639 26.8722 3.23034 25.8667 1.49689 23.2779ZM8.69457 34.5886C7.1249 35.1664 5.4506 35.1346 3.92188 34.4976C4.75904 32.9871 6.05572 31.8542 7.62083 31.2764C9.1905 30.6986 10.8648 30.7304 12.3935 31.3674C11.5564 32.8779 10.2642 34.0108 8.69457 34.5886ZM48.1045 23.924C46.7259 24.3289 45.0471 24.7794 43.2045 25.2207C42.2627 24.7475 41.3254 24.2561 40.3972 23.7693C41.8213 23.3917 43.3227 22.9003 44.8787 22.2542C46.0116 22.8548 47.1172 23.4281 48.1045 23.924ZM31.2795 24.9295C32.1895 24.9386 33.1995 24.9067 34.2869 24.8203C35.62 24.7157 37.1487 24.5064 38.8231 24.1469C38.9004 24.1879 38.9732 24.2288 39.0505 24.2698C39.8877 24.7111 40.7294 25.157 41.5802 25.5983C34.2232 27.2362 25.1692 28.4055 22.7806 25.4664C21.6159 24.0332 21.3884 22.5363 22.1391 21.2533C22.9308 19.8975 24.6324 19.0694 26.3704 19.0694C26.8527 19.0694 27.3349 19.1331 27.8035 19.2651C31.0429 20.1841 34.1186 21.6901 37.2898 23.3462C36.1933 23.5373 35.1696 23.6647 34.2505 23.7375C29.4369 24.1287 26.1747 23.3371 26.1247 23.3234L25.8881 24.3835C25.9973 24.4108 28.0219 24.9113 31.275 24.934M34.0367 31.9179C32.872 31.2354 31.9256 30.9215 31.8301 30.8897L31.5525 31.927C31.5935 31.9407 34.9876 33.0781 36.7347 35.8125C37.0486 36.3039 37.3034 36.8453 37.4854 37.4368C36.9212 37.5323 36.3479 37.6051 35.7656 37.6551C34.2596 35.13 31.0612 33.1691 26.243 31.8178C19.3774 29.8978 15.3645 26.1716 13.9678 20.4252C12.571 14.6835 13.5127 8.80973 16.4837 4.7013C18.1216 2.44008 20.1554 1.09335 21.998 1.04786C22.817 1.02511 23.8134 1.2617 24.4094 1.78947C24.9736 2.28994 25.2511 3.60937 25.2511 3.63666C26.9937 3.98245 27.7672 4.8651 28.3632 5.35647C27.2303 5.11988 25.4604 5.72955 24.6642 6.78964C22.3575 9.86982 23.686 13.0228 23.9636 14.6289L24.1046 15.1248L24.4686 15.0565C29.8964 14.0146 34.5963 16.6216 39.5692 19.3742L39.642 19.4152C40.8477 20.084 42.2353 20.8438 43.6321 21.5945C41.9942 22.2224 40.42 22.6774 38.955 23.0095C35.297 21.0759 31.8073 19.2742 28.0629 18.2141C26.0974 17.6544 23.9681 18.114 22.494 19.2833C22.0026 19.6745 21.584 20.1432 21.2701 20.68C20.2782 22.3816 20.5467 24.3835 22.0071 26.1807C23.9453 28.5648 29.2276 29.0061 37.7083 27.491C39.5874 27.1543 41.4255 26.7585 43.0771 26.3627C44.4374 27.0406 45.8206 27.6912 47.2446 28.2781C40.5474 30.6622 35.388 31.6768 34.0413 31.9225M50.3202 28.2827C51.2529 27.9187 52.2084 27.5274 53.1775 27.1134C60.2068 24.106 65.6893 24.1742 69.0516 24.7612C71.3082 25.157 72.9371 25.8303 73.8516 26.2899C64.3653 30.9033 56.9265 30.4893 50.3202 28.2827Z" fill="white"/>
<path d="M93.6559 11.0351H100.737V12.508H98.0124V31.2755H96.9751L84.3412 14.0224V29.7127H87.1627V31.1856H80.0262V29.7127H82.7578V12.508H80.0262V11.0351H84.12L96.4496 27.901V12.508H93.6628V11.0351H93.6559ZM119.269 13.732C121.116 15.6613 122.132 18.2821 122.132 21.1104C122.132 23.9386 121.109 26.5594 119.249 28.4887C117.375 30.4388 114.809 31.5175 112.022 31.5175C106.387 31.5175 101.975 26.9467 101.975 21.1104C101.975 15.274 106.414 10.7032 112.078 10.7032C114.844 10.7032 117.395 11.775 119.262 13.732M120.445 21.1104C120.445 16.0347 116.835 12.2107 112.05 12.2107C107.265 12.2107 103.655 16.0416 103.655 21.1104C103.655 26.1791 107.265 30.0101 112.05 30.0101C116.835 30.0101 120.445 26.1791 120.445 21.1104ZM136.633 12.508H139.206L133.093 28.8414L126.98 12.508H129.462V11.0351H122.955V12.508H125.209L132.443 31.4069L132.491 31.5452H133.563L140.851 12.508H143.133V11.0351H136.626V12.508H136.633ZM145.394 12.508H148.126V29.7127H145.394V31.1856H159.702V26.3866H158.077V29.7127H149.779V21.6498H156.763V20.1492H149.779V12.508H158.077V15.8342H159.702V11.0351H145.394V12.508ZM177.072 29.7127H169.494V12.508H172.343V11.0351H165.116V12.508H167.848V29.7127H165.116V31.1856H178.67V26.2344H177.079V29.7127H177.072ZM194.471 29.7127H186.892V12.508H189.741V11.0351H182.515V12.508H185.239V29.7127H182.515V31.1856H196.068V26.2344H194.478V29.7127H194.471ZM218.03 21.1104C218.03 23.9386 217.007 26.5594 215.147 28.4887C213.273 30.4388 210.707 31.5175 207.921 31.5175C202.285 31.5175 197.873 26.9467 197.873 21.1104C197.873 15.274 202.312 10.7032 207.976 10.7032C210.742 10.7032 213.294 11.775 215.161 13.732C217.007 15.6613 218.024 18.2821 218.024 21.1104M216.343 21.1104C216.343 16.0347 212.733 12.2107 207.948 12.2107C203.163 12.2107 199.553 16.0416 199.553 21.1104C199.553 26.1791 203.163 30.0101 207.948 30.0101C212.733 30.0101 216.343 26.1791 216.343 21.1104Z" fill="white"/>
<path d="M80.0264 43.9694C80.0264 42.4964 81.1604 41.473 82.4466 41.473C83.4493 41.473 84.2308 42.0746 84.2308 42.6486C84.2308 42.9183 84.051 43.1188 83.809 43.1188C83.5808 43.1188 83.4078 42.9529 83.4078 42.7316C83.4078 42.5933 83.4908 42.4757 83.5876 42.4412C83.4563 42.2337 83.0413 41.964 82.4328 41.964C81.3471 41.964 80.5727 42.8837 80.5727 43.9555C80.5727 45.0273 81.3403 45.9194 82.4674 45.9194C83.0414 45.9194 83.5185 45.705 83.9472 45.304L84.2653 45.6912C83.7882 46.1683 83.1243 46.4173 82.4674 46.4173C80.9945 46.4173 80.0264 45.2763 80.0264 43.9694Z" fill="white"/>
<path d="M85.5909 45.8575H86.1995V42.0404H85.5909V41.5633H87.3681V42.0404H86.7458V43.6517H89.3804V42.0404H88.758V41.5633H90.5352V42.0404H89.9267V45.8575H90.5352V46.3347H88.758V45.8575H89.3804V44.1288H86.7458V45.8575H87.3681V46.3347H85.5909V45.8575Z" fill="white"/>
<path d="M91.5545 45.8568H92.0109L93.4423 42.0397H92.896V41.5695H95.0674V42.0397H94.5211L95.9525 45.8568H96.4089V46.3339H94.8115V45.8637H95.3717L94.9429 44.6882H92.9928L92.5641 45.8637H93.145V46.3339H91.5476V45.8568H91.5545ZM94.7908 44.2317L93.9748 42.0051L93.1588 44.2317H94.7908Z" fill="white"/>
<path d="M97.4254 45.8568H98.0339V42.0466H97.4254V41.5695H99.2372C100.288 41.5695 100.973 42.1019 100.973 42.9525C100.973 43.6025 100.551 44.0589 99.9494 44.2594L100.952 45.8637H101.526V46.3408H100.586L99.41 44.3908C99.3271 44.3977 99.2302 44.4046 99.1334 44.4046C98.9467 44.4046 98.7186 44.3977 98.5803 44.3908V45.8637H99.2026V46.3408H97.4254V45.8637V45.8568ZM100.427 42.9663C100.427 42.3647 99.9494 42.0466 99.2095 42.0466H98.5803V43.9136C98.7255 43.9206 98.926 43.9275 99.1611 43.9275C99.8872 43.9275 100.427 43.5955 100.427 42.9663Z" fill="white"/>
<path d="M103.261 45.8575H103.91V42.0197H102.714V42.7873H102.196V41.5633H106.165V42.7873H105.646V42.0197H104.45V45.8575H105.1V46.3347H103.261V45.8575Z" fill="white"/>
<path d="M107.355 45.8575H107.963V42.0404H107.355V41.5633H110.819V42.7319H110.3V42.0335H108.503V43.6724H110.065V44.1357H108.503V45.8645H110.3V45.166H110.826V46.3347H107.355V45.8575Z" fill="white"/>
<path d="M112.16 45.8568H112.768V42.0466H112.16V41.5695H113.972C115.023 41.5695 115.707 42.1019 115.707 42.9525C115.707 43.6025 115.285 44.0589 114.684 44.2594L115.686 45.8637H116.26V46.3408H115.32L114.144 44.3908C114.061 44.3977 113.965 44.4046 113.868 44.4046C113.681 44.4046 113.453 44.3977 113.315 44.3908V45.8637H113.937V46.3408H112.16V45.8637V45.8568ZM115.161 42.9663C115.161 42.3647 114.684 42.0466 113.944 42.0466H113.315V43.9136C113.46 43.9206 113.66 43.9275 113.895 43.9275C114.621 43.9275 115.161 43.5955 115.161 42.9663Z" fill="white"/>
<path d="M117.179 45.8575H117.787V42.0404H117.179V41.5633H120.643V42.7319H120.132V42.0335H118.334V43.6724H119.89V44.1357H118.334V45.8645H120.132V45.166H120.65V46.3347H117.179V45.8575Z" fill="white"/>
<path d="M121.992 45.8568H122.601V42.0466H121.992V41.5695H123.783C125.443 41.5695 126.521 42.4892 126.521 43.9068C126.521 45.3243 125.512 46.3408 123.762 46.3408H121.992V45.8637V45.8568ZM123.825 45.8568C125.249 45.8568 125.968 45.0616 125.968 43.8929C125.968 42.7243 125.111 42.0466 123.762 42.0466H123.14V45.8568H123.818H123.825Z" fill="white"/>
<path d="M130.056 45.4285C130.056 45.1519 130.222 44.9721 130.443 44.9721C130.664 44.9721 130.816 45.1381 130.816 45.3248C130.816 45.4562 130.768 45.5599 130.699 45.6429C130.858 45.8019 131.21 45.9402 131.646 45.9402C132.282 45.9402 132.669 45.6152 132.669 45.0966C132.669 44.5779 132.22 44.3843 131.674 44.1769C130.851 43.8657 130.228 43.5614 130.228 42.7386C130.228 42.0056 130.809 41.4731 131.701 41.4731C132.483 41.4731 133.119 41.9226 133.119 42.4135C133.119 42.6832 132.946 42.8353 132.745 42.8353C132.51 42.8353 132.358 42.6625 132.358 42.4619C132.358 42.3444 132.407 42.2545 132.462 42.1853C132.331 42.0401 131.985 41.9433 131.688 41.9433C131.114 41.9433 130.768 42.2545 130.768 42.6901C130.768 43.1949 131.217 43.4093 131.819 43.6375C132.6 43.9418 133.202 44.2391 133.202 45.0412C133.202 45.8434 132.531 46.3966 131.632 46.3966C130.733 46.3966 130.042 45.8711 130.042 45.4078" fill="white"/>
<path d="M134.987 44.6889V42.0404H134.385V41.5633H136.149V42.0404H135.519V44.6474C135.519 45.4979 135.962 45.9267 136.722 45.9267C137.483 45.9267 137.933 45.5187 137.933 44.6682V42.0474H137.303V41.5702H139.06V42.0474H138.458V44.6682C138.458 45.8022 137.794 46.4246 136.716 46.4246C135.637 46.4246 134.994 45.8092 134.994 44.6889" fill="white"/>
<path d="M140.179 45.8568H140.788V42.0466H140.179V41.5695H141.991C143.042 41.5695 143.727 42.1019 143.727 42.9525C143.727 43.6025 143.305 44.0589 142.703 44.2594L143.706 45.8637H144.28V46.3408H143.339L142.164 44.3908C142.081 44.3977 141.984 44.4046 141.887 44.4046C141.701 44.4046 141.472 44.3977 141.334 44.3908V45.8637H141.956V46.3408H140.179V45.8637V45.8568ZM143.18 42.9663C143.18 42.3647 142.703 42.0466 141.963 42.0466H141.334V43.9136C141.479 43.9206 141.68 43.9275 141.915 43.9275C142.641 43.9275 143.18 43.5955 143.18 42.9663Z" fill="white"/>
<path d="M145.296 42.0404H144.826V41.5633H146.437V42.0404H145.891L147.232 45.4841L148.574 42.0404H148V41.5633H149.611V42.0404H149.148L147.377 46.4038H147.066L145.296 42.0404Z" fill="white"/>
<path d="M150.628 45.8575H151.236V42.0404H150.628V41.5633H154.092V42.7319H153.574V42.0335H151.776V43.6724H153.339V44.1357H151.776V45.8645H153.574V45.166H154.099V46.3347H150.628V45.8575Z" fill="white"/>
<path d="M156.403 45.8575H157.073V44.4261L155.663 42.0404H155.158V41.5633H156.762V42.0404H156.264L157.357 43.9628L158.449 42.0404H157.931V41.5633H159.542V42.0404H159.03L157.613 44.4192V45.8575H158.29V46.3347H156.403V45.8575Z" fill="white"/>
<path d="M160.406 43.9552C160.406 42.5583 161.429 41.4796 162.833 41.4796C164.237 41.4796 165.233 42.5653 165.233 43.9414C165.233 45.3175 164.202 46.417 162.806 46.417C161.409 46.417 160.406 45.3313 160.406 43.9552ZM164.68 43.9552C164.68 42.8349 163.912 41.9706 162.826 41.9706C161.741 41.9706 160.966 42.8281 160.966 43.9414C160.966 45.0547 161.734 45.926 162.826 45.926C163.919 45.926 164.68 45.0685 164.68 43.9552Z" fill="white"/>
<path d="M166.519 45.8568H167.127V42.0466H166.519V41.5695H168.331C169.382 41.5695 170.066 42.1019 170.066 42.9525C170.066 43.6025 169.644 44.0589 169.043 44.2594L170.046 45.8637H170.62V46.3408H169.679L168.504 44.3908C168.421 44.3977 168.324 44.4046 168.227 44.4046C168.04 44.4046 167.812 44.3977 167.674 44.3908V45.8637H168.296V46.3408H166.519V45.8637V45.8568ZM169.52 42.9663C169.52 42.3647 169.043 42.0466 168.303 42.0466H167.674V43.9136C167.819 43.9206 168.019 43.9275 168.255 43.9275C168.981 43.9275 169.52 43.5955 169.52 42.9663Z" fill="white"/>
<path d="M171.601 45.4285C171.601 45.1519 171.767 44.9721 171.989 44.9721C172.21 44.9721 172.369 45.1381 172.369 45.3248C172.369 45.4562 172.314 45.5599 172.251 45.6429C172.41 45.8019 172.763 45.9402 173.199 45.9402C173.835 45.9402 174.222 45.6152 174.222 45.0966C174.222 44.5779 173.773 44.3843 173.226 44.1769C172.404 43.8657 171.781 43.5614 171.781 42.7386C171.781 42.0056 172.362 41.4731 173.254 41.4731C174.036 41.4731 174.672 41.9226 174.672 42.4135C174.672 42.6832 174.499 42.8353 174.298 42.8353C174.063 42.8353 173.911 42.6625 173.911 42.4619C173.911 42.3444 173.959 42.2545 174.015 42.1853C173.883 42.0401 173.538 41.9433 173.24 41.9433C172.666 41.9433 172.321 42.2545 172.321 42.6901C172.321 43.1949 172.77 43.4093 173.372 43.6375C174.153 43.9418 174.755 44.2391 174.755 45.0412C174.755 45.8434 174.084 46.3966 173.185 46.3966C172.286 46.3966 171.594 45.8711 171.594 45.4078" fill="white"/>
</svg>
